<svg width="72" height="71" viewBox="0 0 72 71" fill="none" xmlns="http://www.w3.org/2000/svg">
<path fill-rule="evenodd" clip-rule="evenodd" d="M36.9844 15.9961H65.9308V29.7785H36.9844V15.9961Z" fill="#4DE24A"/>
<path fill-rule="evenodd" clip-rule="evenodd" d="M8.392 60.5536C5.84265 60.5536 3.6217 58.9212 2.42939 56.5C1.82065 57.7309 1.49997 59.1296 1.5 60.5536C1.5 65.0313 4.58555 68.6609 8.392 68.6609H15.284V60.5536H8.392Z" fill="#4DE24A" stroke="white" stroke-width="3"/>
<path fill-rule="evenodd" clip-rule="evenodd" d="M41.4967 17.7753L65.6256 16.0014V11.9478C65.6256 7.47011 62.5401 3.84047 58.7336 3.84047H27.7196L26.8581 2.08525C26.4749 1.30492 25.518 1.30492 25.1351 2.08525L24.2736 3.84047L23.4121 2.08525C23.0293 1.30492 22.072 1.30492 21.6891 2.08525L20.8276 3.84047L19.9661 2.08525C19.5833 1.30492 18.626 1.30492 18.2431 2.08525L17.3816 3.84047C17.374 3.84047 17.3672 3.84169 17.3592 3.84169L15.9319 2.16308C15.3909 1.52625 14.4667 1.8173 14.2682 2.68762L13.7964 4.7566L12.0073 4.19233C11.2671 3.95925 10.5906 4.75538 10.7891 5.6257L11.2681 7.73076L9.50994 8.28489C8.76974 8.51838 8.52197 9.60598 9.06333 10.2428L10.4907 11.9218C10.4907 11.9303 10.4896 11.9389 10.4896 11.9478L8.99752 12.9612C8.33416 13.4115 8.33416 14.5376 8.99752 14.988L10.4896 16.0014L8.99752 17.0148C8.33416 17.4652 8.33416 18.5913 8.99752 19.0417L10.4896 20.0551L8.99752 21.0685C8.33416 21.5188 8.33416 22.6449 8.99752 23.0953L10.4896 24.1087L8.99752 25.1221C8.33416 25.5725 8.33416 26.6986 8.99752 27.1489L10.4896 28.1624L8.99752 29.1758C8.33416 29.6261 8.33416 30.7522 8.99752 31.2026L10.4896 32.216L8.99752 33.2294C8.33416 33.6798 8.33416 34.8059 8.99752 35.2562L10.4896 36.2697L8.99752 37.2831C8.33416 37.7334 8.33416 38.8595 8.99752 39.3099L10.4896 40.3233L8.99752 41.3367C8.33416 41.7871 8.33416 42.9132 8.99752 43.3635L10.4896 44.3769L8.99752 45.3904C8.33416 45.8407 8.33416 46.9668 8.99752 47.4172L10.4896 48.4306L8.99752 49.444C8.33416 49.8944 8.33416 51.0205 8.99752 51.4708L10.4896 52.4842L8.99752 53.4977C8.33416 53.948 8.33416 55.0741 8.99752 55.5245L10.4896 56.5379L8.99752 57.5513C8.33416 58.0017 8.33416 59.1278 8.99752 59.5781L10.4896 60.5915C10.4896 65.0692 13.5752 68.6988 17.3816 68.6988H58.7336C62.5401 68.6988 65.6256 65.0692 65.6256 60.5915V28.1624L41.4967 26.3885C40.5653 26.3199 39.6912 25.8363 39.0523 25.0362C38.4133 24.2361 38.0576 23.1796 38.0576 22.0819C38.0576 19.8033 39.5635 17.9176 41.4967 17.7753Z" fill="#4DE24A" stroke="white" stroke-width="3"/>
<path fill-rule="evenodd" clip-rule="evenodd" d="M51.8438 58.699H62.1817V42.4844H51.8438V58.699Z" fill="#4DE24A"/>
<path fill-rule="evenodd" clip-rule="evenodd" d="M55.5938 44.7753H65.9317V36.668H55.5938V44.7753Z" fill="#4DE24A"/>
<path fill-rule="evenodd" clip-rule="evenodd" d="M24.5816 17.4125C24.3531 17.4125 24.134 17.3057 23.9724 17.1157C23.8109 16.9256 23.7201 16.6679 23.7201 16.3991C23.7201 14.7225 22.5609 13.3589 21.1356 13.3589C19.7104 13.3589 18.5511 14.7225 18.5511 16.3991C18.5511 16.6679 18.4604 16.9256 18.2988 17.1157C18.1372 17.3057 17.9181 17.4125 17.6896 17.4125C17.4611 17.4125 17.242 17.3057 17.0805 17.1157C16.9189 16.9256 16.8281 16.6679 16.8281 16.3991C16.8281 13.6049 18.7603 11.332 21.1356 11.332C23.5109 11.332 25.4431 13.6049 25.4431 16.3991C25.4431 16.6679 25.3524 16.9256 25.1908 17.1157C25.0292 17.3057 24.8101 17.4125 24.5816 17.4125Z" fill="black"/>
<path fill-rule="evenodd" clip-rule="evenodd" d="M60.7656 45.183H43.5219C43.4305 45.183 43.3428 45.1403 43.2782 45.0643C43.2136 44.9882 43.1773 44.8851 43.1773 44.7776C43.1773 44.6701 43.2136 44.567 43.2782 44.491C43.3428 44.415 43.4305 44.3723 43.5219 44.3723H60.7656C60.857 44.3723 60.9447 44.415 61.0093 44.491C61.0739 44.567 61.1102 44.6701 61.1102 44.7776C61.1102 44.8851 61.0739 44.9882 61.0093 45.0643C60.9447 45.1403 60.857 45.183 60.7656 45.183ZM60.7656 53.2903H43.5219C43.4305 53.2903 43.3428 53.2476 43.2782 53.1716C43.2136 53.0955 43.1773 52.9924 43.1773 52.8849C43.1773 52.7774 43.2136 52.6743 43.2782 52.5983C43.3428 52.5223 43.4305 52.4796 43.5219 52.4796H60.7656C60.857 52.4796 60.9447 52.5223 61.0093 52.5983C61.0739 52.6743 61.1102 52.7774 61.1102 52.8849C61.1102 52.9924 61.0739 53.0955 61.0093 53.1716C60.9447 53.2476 60.857 53.2903 60.7656 53.2903ZM60.7656 61.3976H43.5219C43.4305 61.3976 43.3428 61.3549 43.2782 61.2789C43.2136 61.2028 43.1773 61.0997 43.1773 60.9922C43.1773 60.8847 43.2136 60.7816 43.2782 60.7056C43.3428 60.6296 43.4305 60.5869 43.5219 60.5869H60.7656C60.857 60.5869 60.9447 60.6296 61.0093 60.7056C61.0739 60.7816 61.1102 60.8847 61.1102 60.9922C61.1102 61.0997 61.0739 61.2028 61.0093 61.2789C60.9447 61.3549 60.857 61.3976 60.7656 61.3976ZM60.7656 41.2047H43.5219C43.4305 41.2047 43.3428 41.162 43.2782 41.086C43.2136 41.01 43.1773 40.9069 43.1773 40.7994C43.1773 40.6919 43.2136 40.5888 43.2782 40.5127C43.3428 40.4367 43.4305 40.394 43.5219 40.394H60.7656C60.857 40.394 60.9447 40.4367 61.0093 40.5127C61.0739 40.5888 61.1102 40.6919 61.1102 40.7994C61.1102 40.9069 61.0739 41.01 61.0093 41.086C60.9447 41.162 60.857 41.2047 60.7656 41.2047ZM60.7656 49.2366H43.5219C43.4305 49.2366 43.3428 49.1939 43.2782 49.1179C43.2136 49.0419 43.1773 48.9388 43.1773 48.8313C43.1773 48.7238 43.2136 48.6207 43.2782 48.5446C43.3428 48.4686 43.4305 48.4259 43.5219 48.4259H60.7656C60.857 48.4259 60.9447 48.4686 61.0093 48.5446C61.0739 48.6207 61.1102 48.7238 61.1102 48.8313C61.1102 48.9388 61.0739 49.0419 61.0093 49.1179C60.9447 49.1939 60.857 49.2366 60.7656 49.2366ZM60.7656 57.3439H43.5219C43.4305 57.3439 43.3428 57.3012 43.2782 57.2252C43.2136 57.1492 43.1773 57.0461 43.1773 56.9386C43.1773 56.8311 43.2136 56.728 43.2782 56.6519C43.3428 56.5759 43.4305 56.5332 43.5219 56.5332H60.7656C60.857 56.5332 60.9447 56.5759 61.0093 56.6519C61.0739 56.728 61.1102 56.8311 61.1102 56.9386C61.1102 57.0461 61.0739 57.1492 61.0093 57.2252C60.9447 57.3012 60.857 57.3439 60.7656 57.3439ZM65.9277 19.8927C65.9236 19.8927 65.9202 19.8903 65.916 19.8907C64.8512 19.9332 64.3474 21.1862 63.9029 22.2916C63.439 23.4469 63.0803 24.1981 62.4924 24.1754C61.8415 24.1478 61.4693 23.2828 61.0751 22.3675C60.6223 21.3159 60.1054 20.1234 59.0202 20.1679C57.9706 20.2101 57.4651 21.3005 57.0192 22.2625C56.5446 23.2872 56.2217 23.9103 55.5991 23.8815C54.935 23.8531 54.5821 23.1498 54.1738 22.3358C53.7186 21.4294 53.1924 20.4103 52.1282 20.4452C51.0965 20.487 50.5896 21.412 50.1423 22.2288C49.6692 23.0922 49.3377 23.6184 48.7071 23.5872C48.0272 23.5588 47.676 22.9751 47.2697 22.2993C46.8135 21.5401 46.2993 20.6807 45.2383 20.7225C44.2293 20.763 43.7224 21.521 43.2755 22.1891C42.8509 22.8231 42.5194 23.3249 41.8182 23.2933C41.7268 23.2894 41.6378 23.3284 41.5709 23.4017C41.5039 23.475 41.4645 23.5766 41.4612 23.6841C41.4579 23.7916 41.491 23.8962 41.5533 23.975C41.6156 24.0537 41.702 24.1002 41.7934 24.104C42.833 24.145 43.3596 23.3744 43.8168 22.6905C44.2224 22.0841 44.5726 21.5608 45.2618 21.5332C45.9255 21.5 46.2366 21.9852 46.7073 22.7675C47.1543 23.511 47.6615 24.3541 48.6823 24.3975C49.7515 24.4397 50.266 23.4996 50.7216 22.6678C51.1289 21.9244 51.4804 21.2827 52.1517 21.2555C52.7695 21.2284 53.1059 21.8028 53.58 22.7477C54.027 23.6383 54.5332 24.6472 55.5742 24.6918C56.6511 24.7356 57.1711 23.6298 57.6243 22.6508C58.0168 21.8044 58.3872 21.005 59.0437 20.9783C59.6615 20.9612 59.9837 21.6248 60.4603 22.7335C60.9056 23.7684 61.4104 24.9407 62.4676 24.9857L62.5259 24.9869C63.5817 24.9869 64.0828 23.7404 64.5263 22.6382C64.9188 21.6613 65.2902 20.7411 65.9277 20.7034V19.8927Z" fill="black"/>
<path fill-rule="evenodd" clip-rule="evenodd" d="M31.4688 59.0974H45.2527V42.8828H31.4688V59.0974Z" fill="#4DE24A"/>
<path d="M65.8431 27.0296L39.0407 35.4777C38.6731 35.5936 38.4549 36.0381 38.5534 36.4706L41.1726 47.9693C41.2711 48.4018 41.649 48.6585 42.0167 48.5426L68.8191 40.0945C69.1867 39.9786 69.4049 39.5341 69.3064 39.1016L66.6872 27.6029C66.5887 27.1704 66.2108 26.9137 65.8431 27.0296Z" fill="#1C1C1C"/>
<path d="M47.1362 41.7762L46.1766 42.0787C45.9928 42.1366 45.8837 42.3589 45.9329 42.5751L46.1901 43.704C46.2393 43.9202 46.4283 44.0486 46.6121 43.9906L47.5717 43.6882C47.7556 43.6302 47.8647 43.4079 47.8154 43.1917L47.5583 42.0628C47.509 41.8466 47.3201 41.7183 47.1362 41.7762Z" fill="white"/>
<path d="M49.0659 41.1668L48.1063 41.4693C47.9225 41.5272 47.8134 41.7495 47.8626 41.9658L48.1198 43.0946C48.169 43.3109 48.358 43.4392 48.5418 43.3813L49.5014 43.0788C49.6853 43.0208 49.7944 42.7986 49.7451 42.5823L49.488 41.4535C49.4387 41.2372 49.2498 41.1089 49.0659 41.1668Z" fill="white"/>
<path d="M50.9878 40.5614L50.0282 40.8638C49.8443 40.9218 49.7352 41.1441 49.7845 41.3603L50.0416 42.4891C50.0909 42.7054 50.2798 42.8337 50.4637 42.7758L51.4233 42.4733C51.6071 42.4154 51.7162 42.1931 51.667 41.9768L51.4098 40.848C51.3606 40.6317 51.1716 40.5034 50.9878 40.5614Z" fill="white"/>
<path d="M52.9175 39.952L51.9579 40.2545C51.774 40.3124 51.6649 40.5347 51.7142 40.7509L51.9713 41.8798C52.0206 42.096 52.2095 42.2244 52.3934 42.1664L53.353 41.8639C53.5368 41.806 53.6459 41.5837 53.5967 41.3675L53.3395 40.2386C53.2903 40.0224 53.1013 39.894 52.9175 39.952Z" fill="white"/>
<path d="M54.8394 39.3504L53.8797 39.6529C53.6959 39.7108 53.5868 39.9331 53.6361 40.1494L53.8932 41.2782C53.9425 41.4945 54.1314 41.6228 54.3152 41.5648L55.2749 41.2624C55.4587 41.2044 55.5678 40.9822 55.5185 40.7659L55.2614 39.6371C55.2122 39.4208 55.0232 39.2925 54.8394 39.3504Z" fill="white"/>
<path d="M56.7691 38.741L55.8094 39.0435C55.6256 39.1015 55.5165 39.3237 55.5658 39.54L55.8229 40.6688C55.8721 40.8851 56.0611 41.0134 56.2449 40.9555L57.2046 40.653C57.3884 40.5951 57.4975 40.3728 57.4482 40.1565L57.1911 39.0277C57.1418 38.8114 56.9529 38.6831 56.7691 38.741Z" fill="white"/>
<path d="M58.6987 38.1317L57.7391 38.4341C57.5553 38.4921 57.4462 38.7144 57.4954 38.9306L57.7526 40.0595C57.8018 40.2757 57.9908 40.404 58.1746 40.3461L59.1342 40.0436C59.3181 39.9857 59.4272 39.7634 59.3779 39.5472L59.1208 38.4183C59.0715 38.2021 58.8826 38.0737 58.6987 38.1317Z" fill="white"/>
<path d="M60.6206 37.5262L59.661 37.8287C59.4772 37.8866 59.3681 38.1089 59.4173 38.3251L59.6744 39.454C59.7237 39.6702 59.9127 39.7986 60.0965 39.7406L61.0561 39.4382C61.24 39.3802 61.349 39.1579 61.2998 38.9417L61.0427 37.8128C60.9934 37.5966 60.8044 37.4683 60.6206 37.5262Z" fill="white"/>
<path d="M62.5503 36.9168L61.5907 37.2193C61.4068 37.2772 61.2977 37.4995 61.347 37.7158L61.6041 38.8446C61.6534 39.0609 61.8423 39.1892 62.0262 39.1313L62.9858 38.8288C63.1696 38.7708 63.2787 38.5486 63.2295 38.3323L62.9723 37.2035C62.9231 36.9872 62.7341 36.8589 62.5503 36.9168Z" fill="white"/>
<path fill-rule="evenodd" clip-rule="evenodd" d="M41.0595 43.6884L45.149 42.3994C45.2373 42.3716 45.3313 42.3862 45.4105 42.4399C45.4896 42.4937 45.5474 42.5822 45.571 42.6861L45.8281 43.8145C45.8517 43.9184 45.8394 44.029 45.7937 44.1221C45.748 44.2152 45.6727 44.2832 45.5844 44.311L41.4949 45.6C41.4067 45.6278 41.3126 45.6133 41.2334 45.5595C41.1543 45.5058 41.0965 45.4172 41.0729 45.3134L40.8158 44.1845C40.7921 44.0807 40.8045 43.97 40.8502 43.8769C40.8959 43.7838 40.9711 43.7159 41.0594 43.6881L41.0595 43.6884ZM63.572 36.5925L67.6618 35.3034C67.7501 35.2756 67.8442 35.2902 67.9233 35.3439C68.0025 35.3977 68.0602 35.4862 68.0839 35.5901L68.3409 36.7185C68.3646 36.8224 68.3522 36.933 68.3065 37.0261C68.2608 37.1192 68.1855 37.1872 68.0973 37.215L64.0071 38.5042C63.9188 38.532 63.8248 38.5175 63.7456 38.4637C63.6665 38.41 63.6087 38.3214 63.5851 38.2176L63.3279 37.0887C63.3043 36.9849 63.3167 36.8742 63.3624 36.7811C63.408 36.688 63.4833 36.6201 63.5716 36.5923L63.572 36.5925Z" fill="white"/>
<path fill-rule="evenodd" clip-rule="evenodd" d="M40.0125 39.1099L41.5736 38.6179C41.6619 38.59 41.756 38.6046 41.8351 38.6584C41.9143 38.7121 41.972 38.8007 41.9957 38.9045L42.2527 40.033C42.2764 40.1368 42.264 40.2475 42.2183 40.3406C42.1726 40.4337 42.0973 40.5016 42.0091 40.5294L40.448 41.0215C40.3597 41.0493 40.2656 41.0347 40.1865 40.981C40.1073 40.9272 40.0496 40.8387 40.0259 40.7348L39.7689 39.6064C39.7452 39.5025 39.7576 39.3919 39.8033 39.2988C39.849 39.2057 39.9243 39.1378 40.0125 39.1099Z" fill="white"/>
<path d="M43.5034 38.0106L42.5438 38.3131C42.36 38.371 42.2509 38.5933 42.3001 38.8095L42.5573 39.9384C42.6065 40.1546 42.7955 40.2829 42.9793 40.225L43.9389 39.9225C44.1228 39.8646 44.2319 39.6423 44.1826 39.4261L43.9255 38.2972C43.8762 38.081 43.6873 37.9526 43.5034 38.0106Z" fill="white"/>
<path d="M45.4253 37.409L44.4657 37.7115C44.2818 37.7694 44.1727 37.9917 44.222 38.208L44.4791 39.3368C44.5284 39.5531 44.7173 39.6814 44.9012 39.6234L45.8608 39.321C46.0446 39.263 46.1537 39.0407 46.1045 38.8245L45.8473 37.6957C45.7981 37.4794 45.6091 37.3511 45.4253 37.409Z" fill="white"/>
<path d="M47.355 36.7996L46.3954 37.1021C46.2115 37.1601 46.1024 37.3823 46.1517 37.5986L46.4088 38.7274C46.4581 38.9437 46.647 39.072 46.8309 39.0141L47.7905 38.7116C47.9743 38.6536 48.0834 38.4314 48.0342 38.2151L47.777 37.0863C47.7278 36.87 47.5388 36.7417 47.355 36.7996Z" fill="white"/>
<path d="M49.2769 36.1942L48.3172 36.4966C48.1334 36.5546 48.0243 36.7769 48.0736 36.9931L48.3307 38.122C48.38 38.3382 48.5689 38.4665 48.7527 38.4086L49.7124 38.1061C49.8962 38.0482 50.0053 37.8259 49.956 37.6097L49.6989 36.4808C49.6497 36.2646 49.4607 36.1362 49.2769 36.1942Z" fill="white"/>
<path d="M51.2144 35.5848L50.2547 35.8873C50.0709 35.9452 49.9618 36.1675 50.0111 36.3837L50.2682 37.5126C50.3175 37.7288 50.5064 37.8572 50.6902 37.7992L51.6499 37.4967C51.8337 37.4388 51.9428 37.2165 51.8935 37.0003L51.6364 35.8714C51.5872 35.6552 51.3982 35.5269 51.2144 35.5848Z" fill="white"/>
<path d="M53.1362 34.9754L52.1766 35.2779C51.9928 35.3358 51.8837 35.5581 51.9329 35.7744L52.1901 36.9032C52.2393 37.1195 52.4283 37.2478 52.6121 37.1898L53.5717 36.8874C53.7556 36.8294 53.8647 36.6072 53.8154 36.3909L53.5583 35.2621C53.509 35.0458 53.3201 34.9175 53.1362 34.9754Z" fill="white"/>
<path d="M55.0581 34.3739L54.0985 34.6763C53.9147 34.7343 53.8056 34.9566 53.8548 35.1728L54.1119 36.3016C54.1612 36.5179 54.3502 36.6462 54.534 36.5883L55.4936 36.2858C55.6775 36.2279 55.7865 36.0056 55.7373 35.7893L55.4802 34.6605C55.4309 34.4442 55.2419 34.3159 55.0581 34.3739Z" fill="white"/>
<path d="M56.9878 33.7645L56.0282 34.067C55.8443 34.1249 55.7352 34.3472 55.7845 34.5634L56.0416 35.6923C56.0909 35.9085 56.2798 36.0369 56.4637 35.9789L57.4233 35.6764C57.6071 35.6185 57.7162 35.3962 57.667 35.18L57.4098 34.0511C57.3606 33.8349 57.1716 33.7065 56.9878 33.7645Z" fill="white"/>
<path d="M58.9097 33.1551L57.95 33.4576C57.7662 33.5155 57.6571 33.7378 57.7064 33.9541L57.9635 35.0829C58.0128 35.2991 58.2017 35.4275 58.3856 35.3695L59.3452 35.0671C59.529 35.0091 59.6381 34.7868 59.5889 34.5706L59.3317 33.4417C59.2825 33.2255 59.0935 33.0972 58.9097 33.1551Z" fill="white"/>
<path d="M60.8394 32.5496L59.8797 32.8521C59.6959 32.9101 59.5868 33.1323 59.6361 33.3486L59.8932 34.4774C59.9425 34.6937 60.1314 34.822 60.3152 34.7641L61.2749 34.4616C61.4587 34.4036 61.5678 34.1814 61.5185 33.9651L61.2614 32.8363C61.2122 32.62 61.0232 32.4917 60.8394 32.5496Z" fill="white"/>
<path d="M62.769 31.9442L61.8094 32.2466C61.6256 32.3046 61.5165 32.5269 61.5658 32.7431L61.8229 33.872C61.8721 34.0882 62.0611 34.2165 62.2449 34.1586L63.2046 33.8561C63.3884 33.7982 63.4975 33.5759 63.4482 33.3597L63.1911 32.2308C63.1418 32.0146 62.9529 31.8862 62.769 31.9442Z" fill="white"/>
<path d="M64.6909 31.3348L63.7313 31.6373C63.5475 31.6952 63.4384 31.9175 63.4876 32.1337L63.7448 33.2626C63.794 33.4788 63.983 33.6072 64.1668 33.5492L65.1264 33.2467C65.3103 33.1888 65.4194 32.9665 65.3701 32.7503L65.113 31.6214C65.0637 31.4052 64.8748 31.2769 64.6909 31.3348Z" fill="white"/>
<path d="M66.6206 30.7293L65.661 31.0318C65.4772 31.0897 65.3681 31.312 65.4173 31.5283L65.6744 32.6571C65.7237 32.8734 65.9127 33.0017 66.0965 32.9438L67.0561 32.6413C67.24 32.5833 67.349 32.3611 67.2998 32.1448L67.0427 31.016C66.9934 30.7997 66.8044 30.6714 66.6206 30.7293Z" fill="white"/>
<path fill-rule="evenodd" clip-rule="evenodd" d="M66.5578 30.4721L64.9963 30.9643C64.9081 30.9921 64.814 30.9775 64.7348 30.9238C64.6557 30.87 64.5979 30.7815 64.5743 30.6776L64.3172 29.5488C64.2935 29.4449 64.3059 29.3343 64.3516 29.2412C64.3973 29.1481 64.4725 29.0801 64.5608 29.0523L66.1223 28.5602C66.2105 28.5323 66.3046 28.5469 66.3837 28.6006C66.4629 28.6544 66.5206 28.7429 66.5443 28.8468L66.8014 29.9756C66.8251 30.0795 66.8127 30.1901 66.767 30.2832C66.7213 30.3763 66.646 30.4443 66.5578 30.4721Z" fill="white"/>
<path d="M63.0669 31.5715L64.0265 31.269C64.2103 31.211 64.3194 30.9888 64.2702 30.7725L64.0131 29.6437C63.9638 29.4274 63.7748 29.2991 63.591 29.357L62.6314 29.6595C62.4475 29.7174 62.3385 29.9397 62.3877 30.156L62.6448 31.2848C62.6941 31.5011 62.8831 31.6294 63.0669 31.5715Z" fill="white"/>
<path d="M61.145 32.173L62.1046 31.8705C62.2885 31.8126 62.3976 31.5903 62.3483 31.3741L62.0912 30.2452C62.0419 30.029 61.853 29.9006 61.6691 29.9586L60.7095 30.2611C60.5257 30.319 60.4166 30.5413 60.4658 30.7575L60.723 31.8864C60.7722 32.1026 60.9612 32.231 61.145 32.173Z" fill="white"/>
<path d="M59.2231 32.7824L60.1828 32.4799C60.3666 32.422 60.4757 32.1997 60.4264 31.9834L60.1693 30.8546C60.12 30.6384 59.9311 30.51 59.7473 30.568L58.7876 30.8704C58.6038 30.9284 58.4947 31.1507 58.544 31.3669L58.8011 32.4958C58.8503 32.712 59.0393 32.8403 59.2231 32.7824Z" fill="white"/>
<path d="M57.2935 33.3918L58.2531 33.0893C58.4369 33.0313 58.546 32.8091 58.4967 32.5928L58.2396 31.464C58.1904 31.2477 58.0014 31.1194 57.8176 31.1773L56.8579 31.4798C56.6741 31.5378 56.565 31.76 56.6143 31.9763L56.8714 33.1051C56.9207 33.3214 57.1096 33.4497 57.2935 33.3918Z" fill="white"/>
<path d="M55.3638 33.9972L56.3234 33.6948C56.5072 33.6368 56.6163 33.4145 56.5671 33.1983L56.3099 32.0694C56.2607 31.8532 56.0717 31.7249 55.8879 31.7828L54.9283 32.0853C54.7444 32.1432 54.6353 32.3655 54.6846 32.5818L54.9417 33.7106C54.991 33.9268 55.1799 34.0552 55.3638 33.9972Z" fill="white"/>
<path d="M53.4341 34.6066L54.3937 34.3041C54.5775 34.2462 54.6866 34.0239 54.6374 33.8077L54.3802 32.6788C54.331 32.4626 54.142 32.3342 53.9582 32.3922L52.9986 32.6947C52.8147 32.7526 52.7056 32.9749 52.7549 33.1911L53.012 34.32C53.0613 34.5362 53.2502 34.6646 53.4341 34.6066Z" fill="white"/>
<path d="M51.5122 35.2082L52.4718 34.9057C52.6557 34.8478 52.7648 34.6255 52.7155 34.4092L52.4584 33.2804C52.4091 33.0641 52.2202 32.9358 52.0363 32.9937L51.0767 33.2962C50.8929 33.3542 50.7838 33.5764 50.833 33.7927L51.0902 34.9215C51.1394 35.1378 51.3284 35.2661 51.5122 35.2082Z" fill="white"/>
<path d="M49.5825 35.8175L50.5421 35.5151C50.726 35.4571 50.8351 35.2349 50.7858 35.0186L50.5287 33.8898C50.4794 33.6735 50.2905 33.5452 50.1066 33.6031L49.147 33.9056C48.9632 33.9635 48.8541 34.1858 48.9033 34.4021L49.1605 35.5309C49.2097 35.7472 49.3987 35.8755 49.5825 35.8175Z" fill="white"/>
<path d="M47.6606 36.4269L48.6203 36.1244C48.8041 36.0665 48.9132 35.8442 48.8639 35.628L48.6068 34.4991C48.5575 34.2829 48.3686 34.1546 48.1848 34.2125L47.2251 34.515C47.0413 34.5729 46.9322 34.7952 46.9815 35.0114L47.2386 36.1403C47.2878 36.3565 47.4768 36.4849 47.6606 36.4269Z" fill="white"/>
<path d="M45.7388 37.0324L46.6984 36.7299C46.8822 36.672 46.9913 36.4497 46.9421 36.2334L46.6849 35.1046C46.6357 34.8884 46.4467 34.76 46.2629 34.818L45.3033 35.1204C45.1194 35.1784 45.0103 35.4007 45.0596 35.6169L45.3167 36.7458C45.366 36.962 45.5549 37.0903 45.7388 37.0324Z" fill="white"/>
<path d="M43.8013 37.6379L44.7609 37.3354C44.9447 37.2774 45.0538 37.0552 45.0046 36.8389L44.7474 35.7101C44.6982 35.4938 44.5092 35.3655 44.3254 35.4234L43.3658 35.7259C43.1819 35.7839 43.0728 36.0061 43.1221 36.2224L43.3792 37.3512C43.4285 37.5675 43.6174 37.6958 43.8013 37.6379Z" fill="white"/>
<path d="M41.8794 38.2472L42.839 37.9448C43.0228 37.8868 43.1319 37.6645 43.0827 37.4483L42.8256 36.3194C42.7763 36.1032 42.5873 35.9749 42.4035 36.0328L41.4439 36.3353C41.26 36.3932 41.151 36.6155 41.2002 36.8318L41.4573 37.9606C41.5066 38.1768 41.6956 38.3052 41.8794 38.2472Z" fill="white"/>
<path d="M39.9497 38.8527L40.9093 38.5502C41.0932 38.4923 41.2023 38.27 41.153 38.0538L40.8959 36.9249C40.8466 36.7087 40.6577 36.5803 40.4738 36.6383L39.5142 36.9408C39.3304 36.9987 39.2213 37.221 39.2705 37.4372L39.5277 38.5661C39.5769 38.7823 39.7659 38.9106 39.9497 38.8527Z" fill="white"/>
<path d="M63.0669 31.5715L64.0265 31.269C64.2103 31.211 64.3194 30.9888 64.2702 30.7725L64.0131 29.6437C63.9638 29.4274 63.7748 29.2991 63.591 29.357L62.6314 29.6595C62.4475 29.7174 62.3385 29.9397 62.3877 30.156L62.6448 31.2848C62.6941 31.5011 62.8831 31.6294 63.0669 31.5715Z" fill="white"/>
<path d="M61.145 32.173L62.1046 31.8705C62.2885 31.8126 62.3976 31.5903 62.3483 31.3741L62.0912 30.2452C62.0419 30.029 61.853 29.9006 61.6691 29.9586L60.7095 30.2611C60.5257 30.319 60.4166 30.5413 60.4658 30.7575L60.723 31.8864C60.7722 32.1026 60.9612 32.231 61.145 32.173Z" fill="white"/>
<path d="M59.2231 32.7824L60.1828 32.4799C60.3666 32.422 60.4757 32.1997 60.4264 31.9834L60.1693 30.8546C60.12 30.6384 59.9311 30.51 59.7473 30.568L58.7876 30.8704C58.6038 30.9284 58.4947 31.1507 58.544 31.3669L58.8011 32.4958C58.8503 32.712 59.0393 32.8403 59.2231 32.7824Z" fill="white"/>
<path d="M57.2935 33.3918L58.2531 33.0893C58.4369 33.0313 58.546 32.8091 58.4967 32.5928L58.2396 31.464C58.1904 31.2477 58.0014 31.1194 57.8176 31.1773L56.8579 31.4798C56.6741 31.5378 56.565 31.76 56.6143 31.9763L56.8714 33.1051C56.9207 33.3214 57.1096 33.4497 57.2935 33.3918Z" fill="white"/>
<path d="M55.3638 33.9972L56.3234 33.6948C56.5072 33.6368 56.6163 33.4145 56.5671 33.1983L56.3099 32.0694C56.2607 31.8532 56.0717 31.7249 55.8879 31.7828L54.9283 32.0853C54.7444 32.1432 54.6353 32.3655 54.6846 32.5818L54.9417 33.7106C54.991 33.9268 55.1799 34.0552 55.3638 33.9972Z" fill="white"/>
<path d="M53.4341 34.6066L54.3937 34.3041C54.5775 34.2462 54.6866 34.0239 54.6374 33.8077L54.3802 32.6788C54.331 32.4626 54.142 32.3342 53.9582 32.3922L52.9986 32.6947C52.8147 32.7526 52.7056 32.9749 52.7549 33.1911L53.012 34.32C53.0613 34.5362 53.2502 34.6646 53.4341 34.6066Z" fill="white"/>
<path d="M51.5122 35.2082L52.4718 34.9057C52.6557 34.8478 52.7648 34.6255 52.7155 34.4092L52.4584 33.2804C52.4091 33.0641 52.2202 32.9358 52.0363 32.9937L51.0767 33.2962C50.8929 33.3542 50.7838 33.5764 50.833 33.7927L51.0902 34.9215C51.1394 35.1378 51.3284 35.2661 51.5122 35.2082Z" fill="white"/>
<path d="M49.5825 35.8175L50.5421 35.5151C50.726 35.4571 50.8351 35.2349 50.7858 35.0186L50.5287 33.8898C50.4794 33.6735 50.2905 33.5452 50.1066 33.6031L49.147 33.9056C48.9632 33.9635 48.8541 34.1858 48.9033 34.4021L49.1605 35.5309C49.2097 35.7472 49.3987 35.8755 49.5825 35.8175Z" fill="white"/>
<path d="M47.6606 36.4269L48.6203 36.1244C48.8041 36.0665 48.9132 35.8442 48.8639 35.628L48.6068 34.4991C48.5575 34.2829 48.3686 34.1546 48.1848 34.2125L47.2251 34.515C47.0413 34.5729 46.9322 34.7952 46.9815 35.0114L47.2386 36.1403C47.2878 36.3565 47.4768 36.4849 47.6606 36.4269Z" fill="white"/>
<path d="M45.7388 37.0324L46.6984 36.7299C46.8822 36.672 46.9913 36.4497 46.9421 36.2334L46.6849 35.1046C46.6357 34.8884 46.4467 34.76 46.2629 34.818L45.3033 35.1204C45.1194 35.1784 45.0103 35.4007 45.0596 35.6169L45.3167 36.7458C45.366 36.962 45.5549 37.0903 45.7388 37.0324Z" fill="white"/>
<path d="M43.8013 37.6379L44.7609 37.3354C44.9447 37.2774 45.0538 37.0552 45.0046 36.8389L44.7474 35.7101C44.6982 35.4938 44.5092 35.3655 44.3254 35.4234L43.3658 35.7259C43.1819 35.7839 43.0728 36.0061 43.1221 36.2224L43.3792 37.3512C43.4285 37.5675 43.6174 37.6958 43.8013 37.6379Z" fill="white"/>
<path d="M41.8794 38.2472L42.839 37.9448C43.0228 37.8868 43.1319 37.6645 43.0827 37.4483L42.8256 36.3194C42.7763 36.1032 42.5873 35.9749 42.4035 36.0328L41.4439 36.3353C41.26 36.3932 41.151 36.6155 41.2002 36.8318L41.4573 37.9606C41.5066 38.1768 41.6956 38.3052 41.8794 38.2472Z" fill="white"/>
<path d="M39.9497 38.8527L40.9093 38.5502C41.0932 38.4923 41.2023 38.27 41.153 38.0538L40.8959 36.9249C40.8466 36.7087 40.6577 36.5803 40.4738 36.6383L39.5142 36.9408C39.3304 36.9987 39.2213 37.221 39.2705 37.4372L39.5277 38.5661C39.5769 38.7823 39.7659 38.9106 39.9497 38.8527Z" fill="white"/>
<path fill-rule="evenodd" clip-rule="evenodd" d="M40.5282 41.3756L42.7517 40.6747C42.8399 40.6469 42.934 40.6615 43.0131 40.7152C43.0923 40.769 43.1501 40.8575 43.1737 40.9613L43.4308 42.0902C43.4545 42.194 43.4421 42.3047 43.3964 42.3978C43.3507 42.4909 43.2754 42.5588 43.1872 42.5867L40.9637 43.2875C40.8754 43.3153 40.7813 43.3008 40.7022 43.247C40.623 43.1933 40.5653 43.1047 40.5416 43.0009L40.2846 41.8724C40.2609 41.7686 40.2733 41.6579 40.319 41.5648C40.3647 41.4717 40.44 41.4038 40.5283 41.3759L40.5282 41.3756Z" fill="white"/>
<path d="M44.7456 40.0496L43.786 40.3521C43.6022 40.4101 43.4931 40.6323 43.5423 40.8486L43.7994 41.9774C43.8487 42.1937 44.0377 42.322 44.2215 42.2641L45.1811 41.9616C45.365 41.9036 45.474 41.6814 45.4248 41.4651L45.1677 40.3363C45.1184 40.12 44.9294 39.9917 44.7456 40.0496Z" fill="white"/>
<path d="M46.6675 39.4481L45.7079 39.7506C45.524 39.8085 45.4149 40.0308 45.4642 40.247L45.7213 41.3759C45.7706 41.5921 45.9595 41.7204 46.1434 41.6625L47.103 41.36C47.2868 41.3021 47.3959 41.0798 47.3467 40.8636L47.0895 39.7347C47.0403 39.5185 46.8513 39.3901 46.6675 39.4481Z" fill="white"/>
<path d="M48.605 38.8387L47.6454 39.1412C47.4615 39.1991 47.3524 39.4214 47.4017 39.6376L47.6588 40.7665C47.7081 40.9827 47.897 41.1111 48.0809 41.0531L49.0405 40.7507C49.2243 40.6927 49.3334 40.4704 49.2842 40.2542L49.027 39.1253C48.9778 38.9091 48.7888 38.7808 48.605 38.8387Z" fill="white"/>
<path d="M50.5269 38.2293L49.5672 38.5318C49.3834 38.5897 49.2743 38.812 49.3236 39.0283L49.5807 40.1571C49.63 40.3734 49.8189 40.5017 50.0027 40.4438L50.9624 40.1413C51.1462 40.0833 51.2553 39.8611 51.206 39.6448L50.9489 38.516C50.8997 38.2997 50.7107 38.1714 50.5269 38.2293Z" fill="white"/>
<path d="M52.4565 37.6239L51.4969 37.9263C51.3131 37.9843 51.204 38.2066 51.2533 38.4228L51.5104 39.5516C51.5596 39.7679 51.7486 39.8962 51.9324 39.8383L52.8921 39.5358C53.0759 39.4779 53.185 39.2556 53.1357 39.0393L52.8786 37.9105C52.8293 37.6942 52.6404 37.5659 52.4565 37.6239Z" fill="white"/>
<path d="M54.3784 37.0184L53.4188 37.3209C53.235 37.3788 53.1259 37.6011 53.1751 37.8173L53.4323 38.9462C53.4815 39.1624 53.6705 39.2908 53.8543 39.2328L54.8139 38.9303C54.9978 38.8724 55.1069 38.6501 55.0576 38.4339L54.8005 37.305C54.7512 37.0888 54.5623 36.9604 54.3784 37.0184Z" fill="white"/>
<path d="M56.3003 36.4129L55.3407 36.7154C55.1568 36.7733 55.0477 36.9956 55.097 37.2119L55.3541 38.3407C55.4034 38.557 55.5923 38.6853 55.7762 38.6273L56.7358 38.3249C56.9196 38.2669 57.0287 38.0447 56.9795 37.8284L56.7223 36.6996C56.6731 36.4833 56.4841 36.355 56.3003 36.4129Z" fill="white"/>
<path d="M58.23 35.8035L57.2704 36.106C57.0865 36.164 56.9774 36.3862 57.0267 36.6025L57.2838 37.7313C57.3331 37.9476 57.522 38.0759 57.7059 38.018L58.6655 37.7155C58.8493 37.6576 58.9584 37.4353 58.9092 37.219L58.652 36.0902C58.6028 35.8739 58.4138 35.7456 58.23 35.8035Z" fill="white"/>
<path d="M60.1519 35.1942L59.1922 35.4966C59.0084 35.5546 58.8993 35.7769 58.9486 35.9931L59.2057 37.122C59.255 37.3382 59.4439 37.4665 59.6277 37.4086L60.5874 37.1061C60.7712 37.0482 60.8803 36.8259 60.831 36.6097L60.5739 35.4808C60.5247 35.2646 60.3357 35.1362 60.1519 35.1942Z" fill="white"/>
<path d="M62.0894 34.5848L61.1297 34.8873C60.9459 34.9452 60.8368 35.1675 60.8861 35.3837L61.1432 36.5126C61.1925 36.7288 61.3814 36.8572 61.5652 36.7992L62.5249 36.4967C62.7087 36.4388 62.8178 36.2165 62.7685 36.0003L62.5114 34.8714C62.4622 34.6552 62.2732 34.5269 62.0894 34.5848Z" fill="white"/>
<path d="M64.0112 33.9832L63.0516 34.2857C62.8678 34.3437 62.7587 34.5659 62.8079 34.7822L63.0651 35.911C63.1143 36.1273 63.3033 36.2556 63.4871 36.1977L64.4467 35.8952C64.6306 35.8372 64.7397 35.615 64.6904 35.3987L64.4333 34.2699C64.384 34.0536 64.1951 33.9253 64.0112 33.9832Z" fill="white"/>
<path fill-rule="evenodd" clip-rule="evenodd" d="M65.0285 33.6528L67.1315 32.9899C67.2198 32.9621 67.3138 32.9767 67.393 33.0304C67.4721 33.0842 67.5299 33.1727 67.5535 33.2766L67.8107 34.4054C67.8343 34.5093 67.8219 34.6199 67.7762 34.713C67.7306 34.8061 67.6553 34.8741 67.567 34.9019L65.4637 35.5648C65.3754 35.5927 65.2813 35.5781 65.2022 35.5244C65.123 35.4706 65.0653 35.3821 65.0416 35.2782L64.7846 34.1498C64.7609 34.0459 64.7733 33.9353 64.819 33.8422C64.8647 33.7491 64.94 33.6811 65.0283 33.6533L65.0285 33.6528Z" fill="white"/>
<path d="M42.5503 45.7489L41.5907 46.0513C41.4068 46.1093 41.2977 46.3316 41.347 46.5478L41.6041 47.6766C41.6534 47.8929 41.8423 48.0212 42.0262 47.9633L42.9858 47.6608C43.1696 47.6029 43.2787 47.3806 43.2295 47.1643L42.9723 46.0355C42.9231 45.8192 42.7341 45.6909 42.5503 45.7489Z" fill="white"/>
<path d="M44.4722 45.1473L43.5125 45.4498C43.3287 45.5077 43.2196 45.73 43.2689 45.9462L43.526 47.0751C43.5753 47.2913 43.7642 47.4197 43.9481 47.3617L44.9077 47.0592C45.0915 47.0013 45.2006 46.779 45.1514 46.5628L44.8942 45.4339C44.845 45.2177 44.656 45.0894 44.4722 45.1473Z" fill="white"/>
<path d="M46.4019 44.5379L45.4422 44.8404C45.2584 44.8983 45.1493 45.1206 45.1986 45.3369L45.4557 46.4657C45.505 46.682 45.6939 46.8103 45.8777 46.7523L46.8374 46.4499C47.0212 46.3919 47.1303 46.1697 47.081 45.9534L46.8239 44.8246C46.7747 44.6083 46.5857 44.48 46.4019 44.5379Z" fill="white"/>
<path d="M48.3237 43.9285L47.3641 44.231C47.1803 44.289 47.0712 44.5112 47.1204 44.7275L47.3776 45.8563C47.4268 46.0726 47.6158 46.2009 47.7996 46.143L48.7592 45.8405C48.9431 45.7826 49.0522 45.5603 49.0029 45.344L48.7458 44.2152C48.6965 43.9989 48.5076 43.8706 48.3237 43.9285Z" fill="white"/>
<path fill-rule="evenodd" clip-rule="evenodd" d="M49.3016 43.6256L58.5684 40.7047C58.6566 40.6769 58.7507 40.6914 58.8299 40.7452C58.909 40.7989 58.9668 40.8875 58.9904 40.9913L59.2476 42.1206C59.2713 42.2244 59.2589 42.3351 59.2132 42.4282C59.1675 42.5213 59.0922 42.5892 59.004 42.617L49.7372 45.5379C49.6489 45.5657 49.5549 45.5512 49.4757 45.4974C49.3966 45.4436 49.3388 45.3551 49.3152 45.2513L49.0579 44.122C49.0343 44.0182 49.0467 43.9075 49.0924 43.8144C49.1381 43.7213 49.2133 43.6534 49.3016 43.6256ZM59.5347 40.4001L60.7353 40.0217C60.8236 39.9939 60.9176 40.0084 60.9968 40.0622C61.0759 40.1159 61.1337 40.2045 61.1573 40.3083L61.4145 41.4376C61.4382 41.5414 61.4258 41.652 61.3801 41.7452C61.3344 41.8383 61.2592 41.9062 61.1709 41.934L59.9703 42.3125C59.882 42.3403 59.7879 42.3257 59.7088 42.272C59.6296 42.2182 59.5719 42.1297 59.5482 42.0258L59.291 40.8966C59.2673 40.7927 59.2797 40.6821 59.3254 40.589C59.3711 40.4959 59.4464 40.4279 59.5347 40.4001Z" fill="white"/>
<path d="M62.6597 39.4168L61.7 39.7193C61.5162 39.7772 61.4071 39.9995 61.4564 40.2158L61.7135 41.3446C61.7628 41.5609 61.9517 41.6892 62.1356 41.6313L63.0952 41.3288C63.279 41.2708 63.3881 41.0486 63.3389 40.8323L63.0817 39.7035C63.0325 39.4872 62.8435 39.3589 62.6597 39.4168Z" fill="white"/>
<path d="M64.5815 38.8075L63.6219 39.1099C63.4381 39.1679 63.329 39.3901 63.3783 39.6064L63.6354 40.7352C63.6846 40.9515 63.8736 41.0798 64.0574 41.0219L65.0171 40.7194C65.2009 40.6615 65.31 40.4392 65.2607 40.2229L65.0036 39.0941C64.9543 38.8778 64.7654 38.7495 64.5815 38.8075Z" fill="white"/>
<path d="M68.1987 37.6707L67.2391 37.9732C67.0553 38.0312 66.9462 38.2534 66.9954 38.4697L67.2526 39.5985C67.3018 39.8148 67.4908 39.9431 67.6746 39.8852L68.6342 39.5827C68.8181 39.5247 68.9272 39.3025 68.8779 39.0862L68.6208 37.9574C68.5715 37.7411 68.3826 37.6128 68.1987 37.6707Z" fill="white"/>
<path d="M65.2809 39.4615L65.1846 39.0386C65.1609 38.9348 65.1733 38.8242 65.219 38.731C65.2647 38.6379 65.34 38.57 65.4282 38.5422L66.3879 38.2397C66.4762 38.2119 66.5702 38.2264 66.6494 38.2802C66.7285 38.334 66.7863 38.4225 66.8099 38.5263L66.9062 38.9492L65.2809 39.4615Z" fill="white"/>
<path d="M66.9691 39.2299L67.0654 39.6528C67.0891 39.7566 67.0767 39.8673 67.031 39.9604C66.9853 40.0535 66.91 40.1214 66.8218 40.1492L65.8621 40.4517C65.7738 40.4795 65.6798 40.465 65.6006 40.4112C65.5215 40.3574 65.4637 40.2689 65.4401 40.1651L65.3438 39.7422L66.9691 39.2299Z" fill="white"/>
<path d="M65.7812 27.4977L39.4158 35.808C39.2164 35.8709 39.098 36.1121 39.1515 36.3467C39.2049 36.5813 39.4099 36.7206 39.6094 36.6577L65.9747 28.3474C66.1742 28.2845 66.2925 28.0434 66.2391 27.8087C66.1857 27.5741 65.9806 27.4349 65.7812 27.4977Z" fill="white"/>
<path opacity="0.136" d="M41.0282 35.4526L39.9907 35.7796C39.8577 35.8215 39.7789 35.9822 39.8145 36.1386L39.8146 36.139C39.8502 36.2953 39.9868 36.3881 40.1197 36.3462L41.1572 36.0192C41.2901 35.9773 41.369 35.8166 41.3334 35.6602L41.3333 35.6598C41.2977 35.5035 41.1611 35.4107 41.0282 35.4526Z" fill="#1C1C1C"/>
<path opacity="0.136" d="M43.1063 34.8002L42.0688 35.1273C41.9359 35.1692 41.857 35.3299 41.8926 35.4862L41.8927 35.4866C41.9283 35.643 42.0649 35.7357 42.1978 35.6938L43.2354 35.3668C43.3683 35.3249 43.4471 35.1642 43.4115 35.0079L43.4114 35.0075C43.3758 34.8511 43.2392 34.7584 43.1063 34.8002Z" fill="#1C1C1C"/>
<path opacity="0.136" d="M44.7079 34.2924L43.6703 34.6195C43.5374 34.6614 43.4586 34.8221 43.4942 34.9784L43.4943 34.9788C43.5299 35.1351 43.6665 35.2279 43.7994 35.186L44.8369 34.859C44.9698 34.8171 45.0487 34.6564 45.0131 34.5001L45.013 34.4997C44.9774 34.3433 44.8408 34.2505 44.7079 34.2924Z" fill="#1C1C1C"/>
<path opacity="0.136" d="M46.3016 33.7885L45.2641 34.1156C45.1312 34.1574 45.0523 34.3182 45.0879 34.4745L45.088 34.4749C45.1236 34.6312 45.2602 34.724 45.3932 34.6821L46.4307 34.3551C46.5636 34.3132 46.6425 34.1525 46.6068 33.9962L46.6068 33.9958C46.5711 33.8394 46.4345 33.7466 46.3016 33.7885Z" fill="#1C1C1C"/>
<path opacity="0.136" d="M47.9032 33.2846L46.8657 33.6116C46.7327 33.6535 46.6539 33.8142 46.6895 33.9706L46.6896 33.971C46.7252 34.1273 46.8618 34.2201 46.9947 34.1782L48.0322 33.8512C48.1651 33.8093 48.244 33.6486 48.2084 33.4923L48.2083 33.4919C48.1727 33.3355 48.0361 33.2427 47.9032 33.2846Z" fill="#1C1C1C"/>
<path opacity="0.136" d="M49.9032 32.6557L48.8657 32.9827C48.7327 33.0246 48.6539 33.1853 48.6895 33.3417L48.6896 33.3421C48.7252 33.4984 48.8618 33.5912 48.9947 33.5493L50.0322 33.2223C50.1651 33.1804 50.244 33.0197 50.2084 32.8633L50.2083 32.863C50.1727 32.7066 50.0361 32.6138 49.9032 32.6557Z" fill="#1C1C1C"/>
<path opacity="0.136" d="M51.4969 32.1518L50.4594 32.4788C50.3265 32.5207 50.2476 32.6814 50.2832 32.8378L50.2833 32.8382C50.3189 32.9945 50.4556 33.0873 50.5885 33.0454L51.626 32.7184C51.7589 32.6765 51.8378 32.5158 51.8022 32.3594L51.8021 32.359C51.7665 32.2027 51.6298 32.1099 51.4969 32.1518Z" fill="#1C1C1C"/>
<path opacity="0.136" d="M53.0985 31.6479L52.061 31.9749C51.9281 32.0168 51.8492 32.1775 51.8848 32.3339L51.8849 32.3343C51.9205 32.4906 52.0571 32.5834 52.19 32.5415L53.2275 32.2145C53.3605 32.1726 53.4393 32.0119 53.4037 31.8555L53.4036 31.8551C53.368 31.6988 53.2314 31.606 53.0985 31.6479Z" fill="#1C1C1C"/>
<path opacity="0.136" d="M54.7 31.1401L53.6625 31.4671C53.5296 31.509 53.4507 31.6697 53.4864 31.8261L53.4864 31.8265C53.5221 31.9828 53.6587 32.0756 53.7916 32.0337L54.8291 31.7067C54.962 31.6648 55.0409 31.5041 55.0053 31.3477L55.0052 31.3473C54.9696 31.191 54.833 31.0982 54.7 31.1401Z" fill="#1C1C1C"/>
<path opacity="0.136" d="M56.6922 30.5112L55.6547 30.8382C55.5218 30.8801 55.4429 31.0408 55.4785 31.1972L55.4786 31.1975C55.5142 31.3539 55.6509 31.4467 55.7838 31.4048L56.8213 31.0778C56.9542 31.0359 57.0331 30.8752 56.9975 30.7188L56.9974 30.7184C56.9618 30.5621 56.8251 30.4693 56.6922 30.5112Z" fill="#1C1C1C"/>
<path opacity="0.136" d="M58.2938 30.0073L57.2563 30.3343C57.1234 30.3762 57.0445 30.5369 57.0801 30.6932L57.0802 30.6936C57.1158 30.85 57.2524 30.9428 57.3853 30.9009L58.4229 30.5739C58.5558 30.532 58.6346 30.3713 58.599 30.2149L58.5989 30.2145C58.5633 30.0582 58.4267 29.9654 58.2938 30.0073Z" fill="#1C1C1C"/>
<path opacity="0.136" d="M59.8954 29.5073L58.8578 29.8343C58.7249 29.8762 58.6461 30.0369 58.6817 30.1932L58.6818 30.1936C58.7174 30.35 58.854 30.4428 58.9869 30.4009L60.0244 30.0739C60.1573 30.032 60.2362 29.8713 60.2006 29.7149L60.2005 29.7145C60.1649 29.5582 60.0283 29.4654 59.8954 29.5073Z" fill="#1C1C1C"/>
<path opacity="0.136" d="M61.8954 28.8745L60.8578 29.2015C60.7249 29.2434 60.6461 29.4041 60.6817 29.5604L60.6818 29.5608C60.7174 29.7172 60.854 29.81 60.9869 29.7681L62.0244 29.441C62.1573 29.3991 62.2362 29.2384 62.2006 29.0821L62.2005 29.0817C62.1649 28.9254 62.0283 28.8326 61.8954 28.8745Z" fill="#1C1C1C"/>
<path opacity="0.136" d="M63.4969 28.3706L62.4594 28.6976C62.3265 28.7395 62.2476 28.9002 62.2832 29.0565L62.2833 29.0569C62.3189 29.2133 62.4556 29.3061 62.5885 29.2642L63.626 28.9371C63.7589 28.8952 63.8378 28.7345 63.8022 28.5782L63.8021 28.5778C63.7664 28.4215 63.6298 28.3287 63.4969 28.3706Z" fill="#1C1C1C"/>
<path opacity="0.136" d="M65.0985 27.8706L64.061 28.1976C63.9281 28.2395 63.8492 28.4002 63.8848 28.5565L63.8849 28.5569C63.9205 28.7133 64.0571 28.8061 64.19 28.7642L65.2275 28.4371C65.3605 28.3952 65.4393 28.2345 65.4037 28.0782L65.4036 28.0778C65.368 27.9214 65.2314 27.8287 65.0985 27.8706Z" fill="#1C1C1C"/>
<path fill-rule="evenodd" clip-rule="evenodd" d="M31.4688 44.7753H45.2527V36.668H31.4688V44.7753Z" fill="#4DE24A"/>
<path fill-rule="evenodd" clip-rule="evenodd" d="M52.1427 11.8431C52.0876 11.8431 52.029 11.835 51.9739 11.8229C51.9185 11.8102 51.8642 11.7912 51.8119 11.7661C51.7602 11.7418 51.712 11.7094 51.6634 11.6729C51.6186 11.6364 51.5742 11.5918 51.5325 11.5472C51.4949 11.4986 51.457 11.4499 51.426 11.3932C51.395 11.3364 51.3674 11.2797 51.3464 11.2189C51.3041 11.0951 51.282 10.9631 51.2812 10.8297C51.2812 10.7649 51.2881 10.696 51.2985 10.6311C51.3088 10.5662 51.326 10.5054 51.3464 10.4406C51.3674 10.3798 51.395 10.323 51.426 10.2663C51.457 10.2136 51.4949 10.1609 51.5325 10.1122C51.5742 10.0676 51.6186 10.023 51.6634 9.98657C51.712 9.95008 51.7602 9.91765 51.8119 9.89333C51.8633 9.86901 51.9188 9.84874 51.9739 9.83658C52.0842 9.80821 52.1979 9.80821 52.3116 9.83658C52.3664 9.84874 52.4219 9.86901 52.4736 9.89333C52.5249 9.91765 52.5735 9.95008 52.6217 9.98657C52.6665 10.023 52.711 10.0676 52.7527 10.1122C52.7906 10.1609 52.8285 10.2136 52.8595 10.2663C52.8905 10.323 52.9181 10.3798 52.9388 10.4406C52.9595 10.5054 52.9767 10.5662 52.987 10.6311C52.997 10.696 53.0042 10.7649 53.0042 10.8297C53.0042 11.0973 52.9109 11.3608 52.7527 11.5472C52.711 11.5918 52.6665 11.6364 52.6217 11.6729C52.5735 11.7094 52.5249 11.7418 52.4736 11.7661C52.3685 11.8165 52.2562 11.8427 52.1427 11.8431ZM59.0347 11.3364C58.8073 11.3364 58.5868 11.227 58.4245 11.0405C58.3862 10.9919 58.3506 10.9405 58.318 10.8865C58.287 10.8297 58.2594 10.773 58.2384 10.7122C58.1961 10.5884 58.174 10.4564 58.1732 10.323C58.1732 10.0555 58.2663 9.79604 58.4245 9.60552C58.4662 9.56093 58.5106 9.51634 58.5554 9.47986C58.604 9.44338 58.6522 9.41095 58.7039 9.38663C58.7553 9.3623 58.8108 9.34204 58.8659 9.32988C58.9762 9.3015 59.0933 9.3015 59.2036 9.32988C59.2584 9.34204 59.3139 9.3623 59.3656 9.38663C59.4169 9.41095 59.4655 9.44338 59.5137 9.47986C59.5585 9.51634 59.603 9.56093 59.6447 9.60552C59.8029 9.79604 59.8962 10.0555 59.8962 10.323C59.8962 10.3879 59.889 10.4568 59.879 10.5216C59.8687 10.5865 59.8514 10.6514 59.8308 10.7122C59.8066 10.773 59.7825 10.8297 59.7515 10.8865C59.7205 10.9392 59.6826 10.9919 59.6447 11.0405C59.603 11.0851 59.5585 11.1297 59.5137 11.1662C59.4655 11.2027 59.4169 11.2351 59.3656 11.2594C59.2605 11.3098 59.1482 11.336 59.0347 11.3364Z" fill="black"/>
</svg>
