<svg width="123" height="123" viewBox="0 0 123 123" fill="currentColor" xmlns="http://www.w3.org/2000/svg">
<g clip-path="url(#clip0_2227_432)">
<path d="M120.887 51.8894L118.429 42.1541L84.7675 49.573L110.961 26.9473L104.566 19.2229L77.406 40.459L91.1911 8.80738L82.0307 4.61393L66.8173 35.4198L65.4079 0.95259L55.3141 1.12878L55.1061 35.4903L38.756 5.03442L29.7476 9.54501L44.5593 40.5636L16.5376 20.1566L10.4173 28.1665L37.2476 49.7327L3.14476 43.4296L1.02746 53.2449L34.6862 61.0961L1.18856 70.1866L3.57982 79.9231L37.3085 72.503L11.115 95.1288L17.5099 102.853L44.67 81.617L30.885 113.269L40.0453 117.462L55.2576 86.5892L56.6681 121.123L66.7619 120.947L66.9699 86.5857L83.2527 117.043L92.3284 112.531L77.5167 81.5125L105.538 101.919L111.659 93.9096L84.8284 72.3433L118.931 78.6464L120.981 68.8323L87.3899 60.9799L120.887 51.8894Z" fill="currentColor"/>
</g>
<defs>
<clipPath id="clip0_2227_432">
<rect width="120" height="120" fill="white" transform="translate(0 2.09429) rotate(-1)"/>
</clipPath>
</defs>
</svg>
